<svg width="32" height="32" viewBox="0 0 32 32" fill="none" xmlns="http://www.w3.org/2000/svg">
<circle cx="16" cy="16" r="16" fill="#39B54A"/>
<g clip-path="url(#clip0_44_137)">
<path d="M9.23674 10.433L15.2997 16.5041L9.23674 22.5671C8.94871 22.492 8.6461 22.4934 8.35875 22.571C8.0714 22.6486 7.80923 22.7997 7.5981 23.0095L7 22.4114L12.9073 16.5041L7 10.5968L7.5981 9.99872C7.80867 10.2092 8.07116 10.3602 8.35895 10.4365C8.64673 10.5128 8.94957 10.5115 9.23674 10.433Z" fill="white"/>
<path d="M25.4018 9.99872L25.9999 10.5968L20.0926 16.5041L25.9999 22.4114L25.4018 23.0095C25.1907 22.7997 24.9285 22.6486 24.6411 22.571C24.3538 22.4934 24.0512 22.492 23.7632 22.5671L17.7002 16.5041L23.7632 10.433C24.0503 10.5115 24.3532 10.5128 24.6409 10.4365C24.9287 10.3602 25.1912 10.2092 25.4018 9.99872Z" fill="white"/>
<path d="M22.4115 7L23.0096 7.6063C22.7984 7.8165 22.6463 8.07862 22.5686 8.36629C22.4909 8.65396 22.4904 8.95701 22.5671 9.24494L16.5042 15.3161L10.433 9.24494C10.5169 8.95817 10.5208 8.65392 10.4443 8.3651C10.3677 8.07629 10.2137 7.81389 9.99878 7.6063L10.5969 7L16.5042 12.9073L22.4115 7Z" fill="white"/>
<path d="M16.5042 17.7003L22.5671 23.7632C22.4896 24.0511 22.4897 24.3544 22.5674 24.6422C22.6451 24.9301 22.7976 25.1922 23.0096 25.4019L22.4033 26L16.5042 20.0927L10.5969 26L9.99878 25.4019C10.2093 25.1913 10.3603 24.9288 10.4365 24.641C10.5128 24.3533 10.5116 24.0504 10.433 23.7632L16.5042 17.7003Z" fill="white"/>
</g>
<defs>
<clipPath id="clip0_44_137">
<rect width="19" height="19" fill="white" transform="translate(7 7)"/>
</clipPath>
</defs>
</svg>
